<svg width="420" height="316" viewBox="0 0 420 316" fill="none" xmlns="http://www.w3.org/2000/svg">
<path d="M164.346 59.1033L197.683 304.656C197.702 304.791 197.723 304.927 197.748 305.061C200.18 318.446 219.428 318.446 221.86 305.061C221.884 304.927 221.906 304.791 221.924 304.656L255.264 59.1033L272.897 199.13C272.906 199.191 272.915 199.252 272.924 199.311C275.808 219.027 300.077 227.677 314.399 212.946L409.374 117.92C421.556 105.729 422.285 86.8916 412.356 73.6407C412.329 73.6051 412.302 73.569 412.275 73.5339C387.622 41.6357 342.35 17.7198 288.201 5.88775C283.259 4.80796 278.38 7.94077 277.303 12.885C276.222 17.8294 279.353 22.7129 284.295 23.7927C336.096 35.1121 376.688 57.4914 397.737 84.6852C402.386 90.9331 401.886 99.4921 396.421 104.961L301.397 200.038C301.361 200.074 301.325 200.111 301.289 200.149C297.951 203.602 291.869 201.919 291.058 196.73L267.622 10.6471C267.599 10.482 267.572 10.3174 267.545 10.1537C265.112 -3.23074 245.866 -3.23074 243.433 10.1537C243.406 10.2884 243.384 10.4237 243.366 10.5594L209.804 257.779L176.24 10.5594C176.228 10.4682 176.214 10.3772 176.199 10.2864C175.08 3.5702 169.418 -0.149711 163.865 0.0046177C158.705 0.148055 153.235 3.70594 152.064 10.1537C152.034 10.3174 152.009 10.482 151.988 10.6471L128.553 196.708C127.769 201.493 121.641 203.47 118.211 200.038L23.188 104.961C17.5687 99.3389 17.0816 90.8195 21.7972 84.7803L21.8252 84.7438C42.8789 57.4995 83.5172 34.806 135.313 23.4879C140.254 22.4081 143.386 17.5246 142.307 12.5803C141.227 7.63601 136.347 4.50322 131.405 5.58299C77.2235 17.4224 31.9826 41.651 7.34858 73.5159C-3.1481 86.9786 -1.80376 105.873 10.2364 117.92L105.259 212.997C119.474 227.22 143.751 218.878 146.68 199.344C146.691 199.273 146.701 199.202 146.709 199.13L164.346 59.1033Z" fill="#B8EFFA"/>
</svg>
