<svg width="900" height="898" viewBox="0 0 900 898" fill="none" xmlns="http://www.w3.org/2000/svg">
<g id="Modules_3">
<g id="Base Archi">
<path id="Vector" d="M137.653 250.621L92.2604 221.64C80.2507 213.972 77.1501 197.766 85.4804 186.211C150.159 96.6241 244.252 34.6947 353 10.7168C470.348 -15.1629 590.734 6.18987 692.02 70.8684C740.514 101.833 781.731 140.756 814.887 186.81C823.258 198.427 820.199 214.674 808.107 222.364L762.652 251.22C751.593 258.227 737.041 255.416 729.31 244.874C704.092 210.478 672.92 181.312 636.395 157.975C481.903 59.3135 278.007 98.8979 170.892 244.523C163.181 255.003 148.609 257.649 137.653 250.641V250.621Z" fill="#0A1C29" fill-opacity="0.5"/>
<path id="Vector_2" d="M467.99 874.09L465.717 820.284C465.159 807.199 474.874 796.016 487.896 794.59C530.292 789.96 571.137 777.537 609.605 757.569C772.304 673.108 839.959 476.737 767.405 311.165C762.176 299.238 767.178 285.306 778.733 279.311L826.523 254.486C839.339 247.83 854.677 253.163 860.589 266.33C905.837 367.12 912.41 479.569 878.82 585.754C842.564 700.311 763.871 793.908 657.21 849.285C606.153 875.785 551.831 892.032 495.358 897.716C481.116 899.142 468.569 888.394 467.97 874.09H467.99Z" fill="#0A1C29" fill-opacity="0.5"/>
<path id="Vector_3" d="M208.264 829.71C175.335 808.667 144.95 783.18 117.871 753.579C36.8006 664.902 -4.91288 549.953 0.461501 429.897C3.02467 372.433 16.1299 317.263 39.4464 265.524C45.3375 252.481 60.9232 246.982 73.615 253.618L121.344 278.547C132.94 284.603 137.797 298.618 132.506 310.607C115.328 349.633 105.655 391.222 103.712 434.528C95.5053 617.67 231.746 774.436 411.415 794.383C424.355 795.81 433.905 807.117 433.326 820.118L430.928 873.924C430.288 888.249 417.699 898.936 403.436 897.468C333.197 890.254 266.721 867 208.285 829.689L208.264 829.71Z" fill="#0A1C29" fill-opacity="0.5"/>
</g>
<g id="Masters">
<path id="Vector_4" d="M186.415 720.011L162.106 742.728L159.439 739.875L167.625 711.804L169.051 713.334L140.608 719.742L137.942 716.889L162.23 694.131L165.351 697.459L146.314 715.318L145.569 714.512L170.643 709.034L172.131 710.626L165.041 735.348L164.235 734.48L183.314 716.662L186.435 719.99L186.415 720.011Z" fill="#B8EFFA"/>
<path id="Vector_5" d="M159.605 690.968L123.969 699.03L121.137 695.268L138.562 663.125L141.58 667.114L125.271 696.322L124.113 694.813L156.649 687.082L159.605 690.989V690.968ZM149.083 690.885L145.28 692.146L133.973 677.201L136.164 673.812L149.063 690.885H149.083Z" fill="#B8EFFA"/>
<path id="Vector_6" d="M131.554 651.115C132.939 653.244 133.952 655.476 134.552 657.833C135.172 660.189 135.316 662.277 135.006 664.055L130.934 664.613C131.162 662.939 131.058 661.078 130.583 659.052C130.107 657.006 129.301 655.104 128.144 653.327C127.089 651.714 126.035 650.515 125.002 649.751C123.968 648.986 122.976 648.572 122.004 648.531C121.033 648.469 120.144 648.717 119.338 649.255C118.387 649.875 117.808 650.702 117.643 651.694C117.478 652.707 117.519 653.823 117.808 655.042C118.098 656.262 118.511 657.564 119.028 658.928C119.545 660.293 120.02 661.698 120.454 663.145C120.888 664.592 121.136 665.977 121.24 667.341C121.343 668.706 121.116 669.987 120.557 671.228C120.02 672.447 119.007 673.543 117.519 674.514C116.093 675.444 114.522 675.94 112.827 675.961C111.132 676.002 109.395 675.465 107.638 674.349C105.881 673.253 104.207 671.476 102.595 669.036C101.54 667.424 100.693 665.667 100.094 663.807C99.4941 661.946 99.184 660.169 99.2253 658.474L103.277 657.709C103.277 659.425 103.504 661.058 104.021 662.629C104.538 664.179 105.199 665.584 106.005 666.845C107.039 668.416 108.072 669.574 109.127 670.318C110.181 671.062 111.194 671.455 112.165 671.476C113.137 671.517 114.026 671.248 114.852 670.711C115.845 670.07 116.423 669.243 116.589 668.251C116.775 667.238 116.692 666.143 116.403 664.902C116.093 663.683 115.7 662.38 115.183 661.016C114.687 659.631 114.212 658.246 113.757 656.799C113.323 655.373 113.054 653.968 112.951 652.624C112.868 651.26 113.075 649.978 113.612 648.758C114.15 647.539 115.142 646.464 116.589 645.493C117.994 644.583 119.545 644.108 121.26 644.087C122.976 644.087 124.712 644.624 126.49 645.741C128.268 646.877 129.963 648.655 131.554 651.094V651.115Z" fill="#B8EFFA"/>
<path id="Vector_7" d="M118.305 629.411L92.6317 643.198L98.0268 653.244L94.3887 655.208L81.3662 630.961L85.0042 628.997L90.3993 639.043L116.072 625.256L118.305 629.411Z" fill="#B8EFFA"/>
<path id="Vector_8" d="M108.775 611.076L78.3272 624.512L68.8394 603.035L72.6221 601.361L80.1876 618.497L103.07 608.389L95.2358 590.653L99.0186 588.979L108.775 611.076ZM93.3961 613.122L89.6961 614.755L82.7921 599.108L86.4921 597.475L93.3961 613.122Z" fill="#B8EFFA"/>
<path id="Vector_9" d="M96.4759 582.426L64.9944 593.196L60.7983 580.918C59.4134 576.845 59.2687 573.29 60.4056 570.293C61.5424 567.296 63.8369 565.208 67.2889 564.03C69.5627 563.244 71.7124 563.099 73.6968 563.596C75.7019 564.092 77.4589 565.166 78.9885 566.82C80.5181 568.474 81.7584 570.686 82.7092 573.435L86.0579 583.233L83.288 581.91L94.9463 577.92L96.4759 582.426ZM83.7427 581.765L82.2338 584.535L78.9265 574.861C77.9343 571.988 76.57 570.003 74.813 568.949C73.056 567.895 71.051 567.75 68.8185 568.515C66.5654 569.28 65.0771 570.624 64.3536 572.525C63.6302 574.427 63.7542 576.825 64.7464 579.698L68.0537 589.372L65.1185 588.111L83.7427 581.744V581.765ZM89.2825 561.363L80.6008 573.269L78.9471 568.453L87.6082 556.443L89.2825 561.342V561.363Z" fill="#B8EFFA"/>
<path id="Vector_10" d="M84.0123 540.775C84.6324 543.235 84.8391 545.674 84.6531 548.113C84.4671 550.552 83.9296 552.557 83.0615 554.149L79.0307 553.343C79.7955 551.854 80.2916 550.056 80.519 547.968C80.7464 545.881 80.6017 543.814 80.0849 541.746C79.6095 539.865 79.01 538.398 78.2865 537.344C77.5631 536.289 76.7569 535.566 75.8681 535.215C74.9792 534.842 74.0491 534.78 73.0982 535.029C71.982 535.297 71.1965 535.897 70.7004 536.786C70.2043 537.674 69.8942 538.749 69.7702 540.01C69.6462 541.271 69.6049 542.635 69.6462 544.082C69.6875 545.55 69.6669 547.018 69.6049 548.526C69.5428 550.035 69.3361 551.441 68.9847 552.764C68.6333 554.066 67.9925 555.224 67.083 556.216C66.1735 557.208 64.8506 557.911 63.1349 558.324C61.4813 558.738 59.8276 558.696 58.2153 558.159C56.603 557.642 55.1354 556.567 53.8331 554.955C52.5309 553.343 51.518 551.11 50.8152 548.278C50.3398 546.397 50.1331 544.475 50.1537 542.511C50.1744 540.548 50.4845 538.77 51.0633 537.178L55.1354 537.778C54.5566 539.39 54.2672 541.023 54.2259 542.656C54.2052 544.289 54.3706 545.839 54.722 547.286C55.1767 549.105 55.7762 550.532 56.541 551.586C57.2851 552.64 58.1326 553.343 59.0215 553.673C59.931 554.025 60.8612 554.066 61.812 553.839C62.9489 553.549 63.7757 552.971 64.2512 552.082C64.7472 551.193 65.0573 550.118 65.1607 548.857C65.264 547.596 65.3054 546.253 65.2847 544.785C65.264 543.317 65.2847 541.829 65.326 540.341C65.3674 538.853 65.5741 537.426 65.9255 536.124C66.2769 534.801 66.9177 533.664 67.8065 532.693C68.716 531.721 69.9976 531.018 71.6926 530.584C73.3256 530.171 74.9586 530.233 76.5709 530.791C78.2039 531.329 79.6508 532.424 80.9737 534.078C82.2967 535.731 83.2888 537.964 84.0123 540.796V540.775Z" fill="#B8EFFA"/>
</g>
<g id="Boxes">
<path id="Vector_11" d="M810.918 561.012L842.317 572.008L837.377 586.106C836.116 589.723 834.4 592.245 832.271 593.692C830.142 595.139 827.806 595.408 825.305 594.519C823.61 593.919 822.308 593.03 821.398 591.873C820.489 590.695 819.951 589.372 819.786 587.863C819.6 586.354 819.786 584.845 820.303 583.357L821.357 584.638C820.737 586.437 819.868 587.904 818.752 589.062C817.636 590.219 816.334 590.984 814.846 591.377C813.357 591.77 811.704 591.646 809.905 591.005C807.218 590.054 805.482 588.318 804.696 585.775C803.931 583.233 804.241 579.987 805.626 575.998L810.877 561.012H810.918ZM812.985 566.758L809.368 577.073C808.5 579.553 808.252 581.6 808.624 583.212C808.996 584.824 810.091 585.94 811.89 586.561C813.709 587.201 815.28 587.015 816.582 585.982C817.884 584.948 818.959 583.212 819.827 580.731L823.589 570.003L827.227 571.285L823.858 580.897C823.052 583.171 822.866 585.072 823.258 586.623C823.651 588.173 824.685 589.248 826.359 589.827C828.033 590.405 829.501 590.219 830.783 589.268C832.064 588.297 833.098 586.685 833.904 584.411L837.129 575.212L812.985 566.758Z" fill="#B8EFFA"/>
<path id="Vector_12" d="M792.253 607.603C793.328 605.309 794.692 603.345 796.387 601.733C798.082 600.12 799.963 598.922 802.009 598.136C804.076 597.351 806.226 596.979 808.458 597.041C810.691 597.103 812.923 597.64 815.135 598.674C817.347 599.707 819.207 601.051 820.696 602.725C822.184 604.399 823.3 606.28 824.024 608.368C824.747 610.456 825.057 612.647 824.912 614.962C824.788 617.277 824.168 619.592 823.093 621.928C822.018 624.223 820.654 626.186 818.98 627.778C817.306 629.37 815.445 630.568 813.378 631.354C811.311 632.139 809.161 632.491 806.908 632.408C804.655 632.325 802.423 631.767 800.211 630.734C797.978 629.7 796.097 628.336 794.588 626.682C793.079 625.029 791.984 623.148 791.24 621.06C790.516 618.972 790.227 616.781 790.372 614.466C790.516 612.151 791.116 609.856 792.191 607.562L792.253 607.603ZM796.118 609.34C795.333 611.035 794.899 612.73 794.816 614.425C794.733 616.12 794.961 617.732 795.539 619.262C796.097 620.791 796.945 622.197 798.082 623.437C799.219 624.677 800.624 625.69 802.278 626.455C803.952 627.22 805.606 627.654 807.28 627.695C808.955 627.757 810.567 627.509 812.117 626.951C813.668 626.393 815.052 625.545 816.293 624.388C817.533 623.23 818.546 621.804 819.331 620.109C820.117 618.414 820.53 616.76 820.613 615.065C820.696 613.37 820.448 611.758 819.889 610.187C819.311 608.637 818.484 607.231 817.347 605.991C816.231 604.751 814.825 603.759 813.171 602.973C811.518 602.188 809.823 601.774 808.148 601.712C806.474 601.65 804.862 601.898 803.311 602.477C801.761 603.056 800.376 603.924 799.136 605.082C797.896 606.239 796.904 607.645 796.118 609.319V609.34Z" fill="#B8EFFA"/>
<path id="Vector_13" d="M784.625 624.595L794.051 646.01L790.888 644.19L813.068 641.896L810.36 646.588L792.873 648.449L793.906 646.568L801.1 662.629L798.516 667.114L789.607 646.981L792.583 648.697L769.288 651.219L772.016 646.485L790.661 644.521L789.607 646.34L781.917 629.328L784.646 624.595H784.625Z" fill="#B8EFFA"/>
<path id="Vector_14" d="M766.993 654.484L794.402 673.357L781.09 692.704L777.68 690.369L788.305 674.948L767.717 660.768L756.72 676.747L753.309 674.411L767.014 654.526L766.993 654.484ZM776.791 666.494L780.119 668.788L770.404 682.886L767.076 680.591L776.791 666.494Z" fill="#B8EFFA"/>
<path id="Vector_15" d="M742.519 687.248C744.111 685.284 745.95 683.651 748.017 682.349C750.084 681.046 752.007 680.261 753.805 680.013L755.562 683.713C753.909 684.002 752.172 684.664 750.353 685.739C748.555 686.793 746.984 688.157 745.64 689.811C744.421 691.32 743.594 692.663 743.18 693.883C742.767 695.103 742.684 696.177 742.912 697.108C743.16 698.038 743.656 698.823 744.421 699.443C745.31 700.167 746.26 700.456 747.273 700.311C748.286 700.167 749.34 699.774 750.415 699.133C751.49 698.493 752.606 697.707 753.764 696.798C754.921 695.888 756.1 695.02 757.34 694.172C758.58 693.325 759.841 692.643 761.102 692.147C762.363 691.651 763.665 691.464 764.988 691.609C766.332 691.754 767.675 692.395 769.06 693.511C770.383 694.586 771.334 695.929 771.871 697.542C772.409 699.154 772.429 700.973 771.913 702.978C771.396 704.983 770.218 707.133 768.378 709.386C767.158 710.895 765.753 712.218 764.161 713.375C762.57 714.533 760.957 715.36 759.345 715.835L757.381 712.218C759.014 711.722 760.502 710.978 761.825 710.027C763.148 709.076 764.285 708.001 765.236 706.843C766.414 705.396 767.2 704.053 767.593 702.813C767.985 701.572 768.047 700.498 767.779 699.567C767.51 698.637 766.993 697.852 766.228 697.252C765.319 696.508 764.368 696.219 763.355 696.343C762.342 696.487 761.309 696.88 760.234 697.542C759.159 698.203 758.043 698.989 756.885 699.877C755.728 700.766 754.529 701.655 753.309 702.503C752.069 703.371 750.829 704.032 749.568 704.549C748.307 705.045 747.005 705.231 745.682 705.107C744.359 704.983 743.015 704.363 741.671 703.247C740.369 702.193 739.439 700.849 738.902 699.216C738.364 697.583 738.364 695.764 738.902 693.718C739.439 691.671 740.617 689.521 742.457 687.268L742.519 687.248Z" fill="#B8EFFA"/>
</g>
<g id="Rooms">
<path id="Vector_16" d="M364.514 80.8316L358.085 48.172L370.818 45.6708C375.056 44.844 378.57 45.1954 381.401 46.7043C384.213 48.234 385.99 50.7765 386.693 54.3525C387.169 56.709 387.024 58.8587 386.259 60.7604C385.494 62.6621 384.213 64.2744 382.352 65.5767C380.513 66.8789 378.156 67.8091 375.304 68.3672L365.134 70.3723L366.808 67.8091L369.185 79.8808L364.514 80.7903V80.8316ZM366.891 68.3052L364.348 66.4242L374.373 64.4398C377.35 63.861 379.5 62.7655 380.781 61.1738C382.063 59.5822 382.476 57.6185 382.022 55.2827C381.567 52.9469 380.43 51.2932 378.652 50.3217C376.854 49.3502 374.477 49.1642 371.48 49.7429L361.454 51.7273L363.087 48.9781L366.891 68.2845V68.3052ZM386.342 76.5321L375.696 66.3208L380.678 65.3286L391.406 75.5193L386.321 76.5115L386.342 76.5321Z" fill="#B8EFFA"/>
<path id="Vector_17" d="M412.697 73.5143C410.175 73.7623 407.798 73.5763 405.545 72.9355C403.292 72.2947 401.307 71.2818 399.591 69.9176C397.855 68.5326 396.45 66.879 395.375 64.9153C394.3 62.9516 393.618 60.7605 393.39 58.3213C393.142 55.9029 393.39 53.6084 394.052 51.4793C394.734 49.3503 395.788 47.4279 397.214 45.7536C398.641 44.0586 400.377 42.6943 402.444 41.6401C404.511 40.5859 406.806 39.9244 409.369 39.6764C411.89 39.4283 414.268 39.6144 416.5 40.2345C418.733 40.8546 420.696 41.8675 422.433 43.2317C424.169 44.6167 425.554 46.291 426.629 48.2547C427.704 50.2391 428.365 52.4509 428.592 54.8693C428.84 57.3291 428.613 59.6236 427.952 61.7733C427.29 63.9024 426.236 65.8248 424.81 67.4991C423.383 69.1941 421.647 70.5584 419.58 71.5919C417.513 72.6461 415.218 73.2869 412.697 73.535V73.5143ZM412.242 69.3181C414.102 69.1321 415.777 68.6567 417.286 67.8712C418.774 67.0857 420.055 66.0522 421.089 64.7912C422.123 63.5303 422.887 62.0834 423.383 60.4711C423.88 58.8588 424.024 57.1431 423.859 55.3034C423.673 53.4637 423.197 51.8307 422.391 50.3631C421.585 48.8955 420.552 47.6346 419.291 46.5804C418.03 45.5262 416.583 44.7614 414.95 44.2859C413.317 43.8105 411.58 43.6658 409.72 43.8518C407.88 44.0379 406.227 44.5133 404.718 45.2988C403.229 46.0843 401.948 47.1178 400.894 48.3994C399.84 49.681 399.075 51.1279 398.579 52.7196C398.083 54.3112 397.917 56.0269 398.103 57.8459C398.289 59.6856 398.765 61.3392 399.571 62.8069C400.377 64.2952 401.41 65.5561 402.692 66.5896C403.974 67.6231 405.421 68.3879 407.054 68.8634C408.687 69.3388 410.402 69.4835 412.242 69.3181Z" fill="#B8EFFA"/>
<path id="Vector_18" d="M451.702 71.6745C449.16 71.6745 446.803 71.2197 444.654 70.3722C442.483 69.5041 440.602 68.3052 439.031 66.7549C437.46 65.2046 436.22 63.4062 435.352 61.3392C434.463 59.2721 434.029 57.019 434.05 54.5798C434.05 52.1407 434.504 49.8876 435.414 47.8412C436.303 45.7741 437.543 43.9965 439.135 42.4668C440.726 40.9372 442.607 39.7383 444.757 38.8908C446.907 38.0433 449.284 37.6299 451.847 37.6299C454.389 37.6299 456.725 38.064 458.875 38.9115C461.025 39.759 462.885 40.9579 464.477 42.4875C466.048 44.0378 467.267 45.8361 468.135 47.9239C469.004 50.0116 469.438 52.2647 469.417 54.7039C469.417 57.1843 468.962 59.4375 468.094 61.5045C467.205 63.5716 465.986 65.3493 464.394 66.8789C462.802 68.4085 460.921 69.5868 458.772 70.4136C456.622 71.2404 454.265 71.6538 451.723 71.6538L451.702 71.6745ZM451.661 67.4577C453.521 67.4577 455.258 67.1476 456.829 66.5275C458.4 65.9074 459.764 65.0185 460.921 63.861C462.079 62.7034 462.988 61.3598 463.65 59.8095C464.311 58.2592 464.642 56.5642 464.642 54.7245C464.642 52.8848 464.332 51.1899 463.691 49.6602C463.051 48.1306 462.141 46.7663 461.004 45.5881C459.847 44.4099 458.482 43.5004 456.932 42.8596C455.361 42.2188 453.645 41.888 451.785 41.888C449.945 41.888 448.25 42.1981 446.679 42.8182C445.108 43.4383 443.744 44.3479 442.566 45.5054C441.388 46.663 440.478 48.0272 439.817 49.5569C439.155 51.0865 438.824 52.7815 438.824 54.6212C438.824 56.4609 439.135 58.1559 439.775 59.7062C440.416 61.2565 441.326 62.6207 442.504 63.7783C443.661 64.9359 445.046 65.8454 446.597 66.4861C448.168 67.1269 449.863 67.4577 451.702 67.4577H451.661Z" fill="#B8EFFA"/>
<path id="Vector_19" d="M475.722 71.7365L479.505 38.6635L483.37 39.0975L495.339 65.7834L493.251 65.556L510.738 42.2395L514.604 42.6736L510.883 75.7467L506.356 75.2299L509.271 49.2882L510.366 49.4122L494.822 69.8348L492.651 69.5868L482.027 46.1669L483.205 46.3116L480.249 72.2533L475.722 71.7365Z" fill="#B8EFFA"/>
<path id="Vector_20" d="M529.362 80.0254C526.881 79.4879 524.587 78.5991 522.499 77.3589C520.391 76.1186 518.82 74.7544 517.786 73.2661L520.287 70.0001C521.3 71.3437 522.685 72.5839 524.442 73.7208C526.199 74.837 528.142 75.6225 530.209 76.0773C532.09 76.4907 533.682 76.594 534.943 76.408C536.204 76.222 537.217 75.8086 537.919 75.1678C538.643 74.527 539.098 73.7208 539.304 72.77C539.552 71.6537 539.366 70.6822 538.788 69.8347C538.209 68.9872 537.382 68.2431 536.307 67.5816C535.232 66.9202 534.033 66.2794 532.71 65.6593C531.387 65.0598 530.064 64.3777 528.742 63.6542C527.419 62.9307 526.24 62.1246 525.228 61.2151C524.215 60.3056 523.45 59.2307 522.974 57.9904C522.499 56.7295 522.437 55.2412 522.809 53.5049C523.16 51.8306 523.946 50.3836 525.124 49.1641C526.302 47.9445 527.915 47.097 529.94 46.6422C531.966 46.1875 534.405 46.2702 537.258 46.8696C539.139 47.283 540.979 47.9238 542.715 48.8127C544.472 49.7015 545.919 50.7557 547.097 51.9959L544.761 55.3859C543.562 54.1664 542.24 53.1742 540.772 52.4094C539.304 51.6652 537.857 51.1278 536.39 50.8177C534.571 50.425 533 50.3423 531.739 50.549C530.457 50.7557 529.465 51.1898 528.762 51.8512C528.059 52.5127 527.605 53.3189 527.398 54.2904C527.15 55.4273 527.315 56.4401 527.894 57.267C528.473 58.1145 529.3 58.8586 530.375 59.4994C531.449 60.1609 532.648 60.781 533.971 61.4218C535.294 62.0419 536.617 62.7033 537.94 63.4062C539.263 64.109 540.441 64.9151 541.454 65.8246C542.467 66.7341 543.232 67.7883 543.707 69.0286C544.183 70.2688 544.245 71.7364 543.872 73.4314C543.521 75.0644 542.736 76.5114 541.537 77.7309C540.338 78.9505 538.705 79.7773 536.638 80.2321C534.571 80.6868 532.132 80.6042 529.279 79.984L529.362 80.0254Z" fill="#B8EFFA"/>
</g>
</g>
</svg>
