<svg width="20" height="24" viewBox="0 0 20 24" fill="none" xmlns="http://www.w3.org/2000/svg">
<path id="Apple-W" d="M10.1555 6.89595C9.18569 6.89595 7.68492 5.81796 6.10436 5.85596C4.0174 5.88296 2.10436 7.03895 1.02917 8.86994C-1.13656 12.5449 0.470601 17.9729 2.58313 20.9599C3.61945 22.4138 4.84195 24.0498 6.46241 23.9988C8.0174 23.9338 8.60052 23.0118 10.488 23.0118C12.3611 23.0118 12.8921 23.9988 14.5391 23.9598C16.2138 23.9338 17.2767 22.4798 18.2997 21.0119C19.4824 19.3239 19.9734 17.6869 20 17.5969C19.9601 17.5839 16.7448 16.3759 16.7059 12.7399C16.6793 9.69993 19.243 8.24594 19.3627 8.18094C17.9008 6.09096 15.6563 5.85696 14.8716 5.80496C12.8256 5.64896 11.112 6.89595 10.1555 6.89595ZM13.6113 3.82997C14.4737 2.81798 15.0435 1.40299 14.8849 0C13.6501 0.0519996 12.1616 0.804994 11.2716 1.81799C10.4737 2.71398 9.78415 4.15597 9.96932 5.53196C11.3381 5.63596 12.7468 4.84397 13.6102 3.83097" fill="white"/>
</svg>
