<svg width="20" height="24" viewBox="0 0 20 24" fill="none" xmlns="http://www.w3.org/2000/svg">
<path id="Linux-W" d="M10.5099 0C10.3535 0 10.1916 0.00700008 10.0244 0.0210002C5.74951 0.354004 6.88347 4.82806 6.81772 6.31907C6.74084 7.41109 6.51425 8.2721 5.75558 9.33911C4.86035 10.3901 3.60398 12.0891 3.00817 13.8602C2.72696 14.6922 2.59343 15.5442 2.71786 16.3492C2.67119 16.3856 2.6332 16.4317 2.60658 16.4842C2.34358 16.7522 2.15138 17.0842 1.93592 17.3232C1.73462 17.5222 1.44531 17.5902 1.1297 17.7232C0.813085 17.8592 0.464096 17.9922 0.255715 18.4032C0.164674 18.5922 0.118142 18.7972 0.122188 19.0052C0.122188 19.2042 0.149501 19.4052 0.177824 19.5412C0.236495 19.9402 0.295165 20.2692 0.218287 20.5112C-0.0335923 21.1912 -0.0649506 21.6563 0.111061 21.9953C0.287073 22.3293 0.652247 22.4653 1.06193 22.5963C1.88129 22.7963 2.99401 22.7313 3.868 23.1963C4.80471 23.6623 5.75558 23.8663 6.51425 23.6663C7.04633 23.5503 7.49546 23.2023 7.73622 22.7203C8.33 22.7173 8.98044 22.4513 10.0223 22.3863C10.7294 22.3283 11.6145 22.6533 12.6291 22.5863C12.6544 22.7203 12.6929 22.7843 12.7445 22.9193L12.7475 22.9223C13.143 23.7003 13.8734 24.0543 14.6533 23.9933C15.4332 23.9323 16.2637 23.4573 16.9364 22.6873C17.5747 21.9223 18.6388 21.6032 19.3419 21.1842C19.6939 20.9852 19.9781 20.7152 19.9984 20.3312C20.0216 19.9312 19.7961 19.5202 19.2761 18.9552V18.8582L19.2731 18.8552C19.1011 18.6552 19.0202 18.3202 18.9312 17.9292C18.8452 17.5282 18.7471 17.1432 18.4335 16.8832H18.4305C18.3708 16.8292 18.306 16.8162 18.2403 16.7482C18.1836 16.7093 18.117 16.6871 18.0481 16.6842C18.4841 15.4062 18.3151 14.1342 17.8731 12.9901C17.3339 11.5801 16.3911 10.3521 15.6729 9.50711C14.8677 8.5021 14.0787 7.55009 14.0949 6.13907C14.1212 3.98705 14.3336 0.00600007 10.5099 0ZM11.045 3.40504H11.0582C11.2736 3.40504 11.4588 3.46704 11.6489 3.60304C11.8411 3.73804 11.9828 3.93505 12.092 4.13605C12.1982 4.39505 12.2518 4.59505 12.2599 4.86006C12.2599 4.84006 12.266 4.82006 12.266 4.80006V4.90506L12.2619 4.88406L12.2599 4.86006C12.2581 5.10311 12.2044 5.34327 12.1062 5.56606C12.059 5.69149 11.9856 5.80565 11.8907 5.90107C11.8617 5.88565 11.832 5.87163 11.8017 5.85907C11.6965 5.81407 11.6014 5.79507 11.5144 5.72607C11.4423 5.69762 11.3679 5.67553 11.2919 5.66007C11.3424 5.60006 11.4395 5.52706 11.477 5.46206C11.5309 5.33339 11.5606 5.19939 11.566 5.06006V5.04006C11.5685 4.90423 11.5476 4.76897 11.5043 4.64005C11.4588 4.50605 11.4021 4.44005 11.3192 4.30705C11.2342 4.24105 11.1502 4.17505 11.0491 4.17505H11.0329C10.9388 4.17505 10.8549 4.20505 10.7679 4.30705C10.6718 4.39967 10.6005 4.51444 10.5605 4.64105C10.5072 4.76824 10.4764 4.90355 10.4695 5.04106V5.06006C10.4708 5.14939 10.4775 5.23839 10.4897 5.32706C10.2945 5.26006 10.0466 5.19206 9.87567 5.12506C9.86622 5.05874 9.86014 4.99198 9.85746 4.92506V4.90506C9.85046 4.64115 9.90226 4.37895 10.0092 4.13705C10.0919 3.91744 10.2445 3.73036 10.4442 3.60404C10.6176 3.47544 10.8282 3.40633 11.045 3.40504ZM8.04879 3.46404H8.08521C8.22885 3.46404 8.35833 3.51204 8.48882 3.59904C8.63651 3.72804 8.75587 3.88705 8.8368 4.06405C8.92784 4.26305 8.97841 4.46405 8.99157 4.73105V4.73505C8.99865 4.86906 8.99763 4.93506 8.98954 5.00106V5.08106C8.9592 5.08806 8.93289 5.09906 8.90558 5.10506C8.75182 5.16006 8.62841 5.24006 8.50804 5.30506C8.52018 5.21439 8.52119 5.12539 8.51107 5.03806V5.02306C8.49893 4.89006 8.47061 4.82306 8.42812 4.69005C8.39715 4.58788 8.33919 4.49571 8.26021 4.42305C8.23521 4.40074 8.20597 4.38358 8.17418 4.37259C8.14239 4.3616 8.1087 4.357 8.07509 4.35905H8.05385C7.98203 4.36505 7.92234 4.39905 7.8657 4.49105C7.80108 4.56842 7.7591 4.66179 7.74431 4.76106C7.71808 4.86902 7.71021 4.98054 7.72104 5.09106V5.10606C7.73318 5.24106 7.75847 5.30606 7.80197 5.44006C7.8485 5.57406 7.9011 5.64007 7.96989 5.70807C7.97933 5.7174 7.99079 5.7254 8.00428 5.73207C7.93347 5.78907 7.88593 5.80207 7.82625 5.86807C7.78849 5.90129 7.74294 5.92466 7.69373 5.93607C7.58848 5.81097 7.49535 5.67638 7.41555 5.53406C7.32059 5.32369 7.26737 5.09726 7.25876 4.86706C7.24303 4.64134 7.27048 4.41471 7.33968 4.19905C7.39451 4.00221 7.49221 3.81961 7.62596 3.66404C7.75544 3.53104 7.88896 3.46404 8.04879 3.46404ZM9.43463 5.17006C9.77047 5.17006 10.1761 5.23506 10.6647 5.56906C10.9611 5.76907 11.1937 5.83807 11.7289 6.03707H11.7319C11.9898 6.17307 12.1416 6.30307 12.2154 6.43607V6.30507C12.2518 6.37777 12.272 6.4573 12.2748 6.53835C12.2776 6.6194 12.2629 6.70011 12.2316 6.77508C12.1072 7.08508 11.7096 7.41809 11.1563 7.61709C10.8852 7.75209 10.6495 7.95209 10.3723 8.08409C10.0932 8.21909 9.77755 8.3761 9.34865 8.3511C9.19452 8.36009 9.04019 8.33727 8.89547 8.2841C8.7838 8.22321 8.6751 8.15713 8.56974 8.08609C8.37249 7.95109 8.20255 7.75409 7.95067 7.62109V7.61609H7.94561C7.54098 7.37009 7.32249 7.10408 7.25168 6.90608C7.18154 6.63741 7.24662 6.43741 7.44691 6.30607C7.6735 6.17107 7.8313 6.03507 7.93549 5.97007C8.0407 5.89607 8.08015 5.86807 8.11353 5.83907L8.11555 5.83607C8.28651 5.63407 8.55659 5.36606 8.96425 5.23506C9.10486 5.19906 9.26064 5.17006 9.43463 5.17006ZM12.267 7.31208C12.6291 8.7291 13.4768 10.7871 14.0221 11.7851C14.3114 12.3191 14.8869 13.4442 15.1368 14.8092C15.2946 14.8042 15.4706 14.8272 15.6557 14.8732C16.3092 13.2022 15.1034 11.4061 14.5541 10.9071C14.3316 10.7071 14.3195 10.5721 14.4297 10.5721C15.0265 11.1061 15.8105 12.1441 16.0948 13.3292C16.2263 13.8642 16.2566 14.4332 16.116 14.9992C16.1838 15.0272 16.2526 15.0592 16.3234 15.0662C17.3673 15.6002 17.7527 16.0042 17.5676 16.6032V16.5602C17.5069 16.5572 17.4462 16.5602 17.3855 16.5602H17.3693C17.5221 16.0932 17.1852 15.7352 16.292 15.3362C15.3664 14.9362 14.627 15.0002 14.5015 15.8012C14.4935 15.8442 14.4884 15.8672 14.4833 15.9362C14.4145 15.9592 14.3427 15.9892 14.2719 16.0002C13.8369 16.2682 13.6023 16.6692 13.4698 17.1872C13.3382 17.7202 13.2978 18.3432 13.2624 19.0562V19.0592C13.2421 19.3932 13.0904 19.8972 12.9397 20.4092C11.4223 21.4812 9.3183 21.9473 7.52986 20.7432C7.41713 20.5496 7.28054 20.3706 7.12321 20.2102C7.04722 20.0865 6.95352 19.9744 6.84503 19.8772C7.02913 19.8772 7.18694 19.8472 7.31541 19.8102C7.46056 19.7431 7.57421 19.6236 7.63304 19.4762C7.74229 19.2092 7.63304 18.7792 7.28405 18.3132C6.93506 17.8472 6.34228 17.3182 5.47538 16.7922C4.83809 16.3922 4.47797 15.9222 4.31208 15.3962C4.14517 14.8622 4.16743 14.3112 4.29691 13.7512C4.54474 12.6811 5.18 11.6411 5.58564 10.9881C5.69387 10.9231 5.62306 11.1231 5.17292 11.9621C4.77234 12.7131 4.01974 14.4592 5.04951 15.8162C5.08788 14.826 5.30972 13.8512 5.70399 12.9401C6.27451 11.6621 7.46714 9.43611 7.56122 7.67209C7.60977 7.70809 7.78073 7.80709 7.85356 7.87409C8.07408 8.00709 8.23795 8.20709 8.45038 8.3391C8.66281 8.5401 8.93289 8.6741 9.33651 8.6741C9.37562 8.67743 9.41271 8.67943 9.44778 8.6801C9.86454 8.6801 10.1862 8.5461 10.4563 8.4121C10.7497 8.2781 10.9823 8.07809 11.2049 8.01209H11.2099C11.6823 7.87709 12.0556 7.61009 12.267 7.31208ZM14.4773 16.2702C14.5147 16.8702 14.8242 17.5152 15.3695 17.6472C15.9643 17.7812 16.82 17.3142 17.1812 16.8822L17.3946 16.8722C17.7133 16.8652 17.9783 16.8822 18.2514 17.1402L18.2544 17.1432C18.4648 17.3422 18.563 17.6732 18.65 18.0192C18.7359 18.4192 18.8057 18.7992 19.0637 19.0852C19.5553 19.6122 19.7161 19.9912 19.707 20.2252L19.7101 20.2182V20.2362L19.707 20.2252C19.6919 20.4872 19.5199 20.6202 19.2033 20.8192C18.566 21.2202 17.4371 21.5312 16.7179 22.3893C16.0927 23.1263 15.332 23.5293 14.6583 23.5803C13.9867 23.6333 13.407 23.3803 13.0661 22.6823L13.0611 22.6793C12.8487 22.2793 12.9397 21.6543 13.1177 20.9892C13.2958 20.3212 13.5507 19.6452 13.5861 19.0922C13.6235 18.3782 13.663 17.7572 13.7833 17.2782C13.9047 16.8132 14.0949 16.4812 14.4317 16.2942L14.4773 16.2702ZM3.53823 16.3192H3.54835C3.6023 16.3192 3.65524 16.3239 3.70716 16.3332C4.08751 16.3882 4.42133 16.6662 4.74199 17.0852L5.66251 18.7492L5.66555 18.7522C5.91136 19.2852 6.42827 19.8162 6.8683 20.3892C7.30731 20.9872 7.6472 21.5202 7.60573 21.9593V21.9653C7.54807 22.7093 7.12018 23.1133 6.46772 23.2593C5.81526 23.3943 4.93014 23.2613 4.04503 22.7953C3.06583 22.2593 1.90254 22.3263 1.15499 22.1933C0.782064 22.1266 0.538278 21.9933 0.423634 21.7933C0.312362 21.5932 0.309327 21.1912 0.548056 20.5632V20.5592L0.550079 20.5562C0.668432 20.2222 0.580426 19.8042 0.522767 19.4382C0.467131 19.0372 0.438807 18.7282 0.566264 18.4982C0.728114 18.1642 0.966843 18.0982 1.26424 17.9652C1.56164 17.8302 1.91164 17.7632 2.18982 17.4952H2.19184V17.4932C2.4508 17.2252 2.64199 16.8922 2.86757 16.6552C3.05976 16.4542 3.25196 16.3192 3.53823 16.3192ZM10.78 7.24508C10.34 7.44609 9.82408 7.78009 9.2748 7.78009C8.72654 7.78009 8.29359 7.51309 7.98 7.31408C7.82422 7.18008 7.69677 7.04608 7.60269 6.97908C7.43679 6.84508 7.45702 6.64608 7.52783 6.64608C7.63809 6.66208 7.65833 6.78008 7.72914 6.84608C7.82625 6.91208 7.94662 7.04608 8.0933 7.17908C8.38867 7.37909 8.78116 7.64609 9.27379 7.64609C9.7644 7.64609 10.339 7.37909 10.688 7.18008C10.8852 7.04508 11.1381 6.84608 11.3434 6.71308C11.5013 6.57708 11.4942 6.44607 11.6257 6.44607C11.7552 6.46207 11.6601 6.58008 11.477 6.77808C11.2527 6.94597 11.0207 7.10118 10.78 7.24508ZM9.6855 5.66207V5.64007C9.67943 5.62006 9.69865 5.59806 9.71483 5.59006C9.78969 5.54706 9.89691 5.56306 9.97784 5.59406C10.0416 5.59406 10.1397 5.66107 10.1296 5.72907C10.1235 5.77807 10.0436 5.79507 9.99301 5.79507C9.93738 5.79507 9.89995 5.75207 9.85038 5.72707C9.79778 5.70907 9.70269 5.71907 9.6855 5.66207ZM9.12813 5.66207C9.10789 5.72007 9.01382 5.71107 8.96021 5.72807C8.91266 5.75307 8.87321 5.79607 8.81859 5.79607C8.76801 5.79607 8.68708 5.77607 8.68102 5.72807C8.6709 5.66207 8.77003 5.59506 8.83275 5.59506C8.91367 5.56406 9.01888 5.54806 9.09474 5.59006C9.11396 5.59906 9.13116 5.62006 9.12509 5.64007V5.66007H9.12813V5.66207Z" fill="white"/>
</svg>
