<?xml version="1.0" encoding="UTF-8"?>
<svg id="Layer_1" xmlns="http://www.w3.org/2000/svg" version="1.1" viewBox="0 0 940 710">
  <!-- Generator: Adobe Illustrator 29.0.1, SVG Export Plug-In . SVG Version: 2.1.0 Build 192)  -->
  <defs>
    <style>
      .st0 {
        fill: #b8effa;
      }
    </style>
  </defs>
  <path class="st0" d="M369.2,136.6l74,544.8c0,.3,0,.6.1.9,5.4,29.7,48.1,29.7,53.5,0,0-.3.1-.6.1-.9l74-544.8,39.1,310.6c0,.1,0,.3,0,.4,6.4,43.7,60.3,62.9,92.1,30.2l210.8-210.8c27-27,28.7-68.8,6.6-98.2,0,0-.1-.2-.2-.2-54.7-70.8-155.2-123.8-275.4-150.1-11-2.4-21.8,4.6-24.2,15.5-2.4,11,4.6,21.8,15.5,24.2,115,25.1,205.1,74.8,251.8,135.1,10.3,13.9,9.2,32.8-2.9,45l-210.9,210.9c0,0-.2.2-.2.2-7.4,7.7-20.9,3.9-22.7-7.6l-52-412.8c0-.4-.1-.7-.2-1.1-5.4-29.7-48.1-29.7-53.5,0,0,.3-.1.6-.2.9l-74.5,548.5L395.6,28.9c0-.2,0-.4,0-.6-2.5-14.9-15.1-23.2-27.4-22.8-11.5.3-23.6,8.2-26.2,22.5,0,.4-.1.7-.2,1.1l-52,412.8c-1.7,10.6-15.3,15-23,7.4L55.9,238.3c-12.5-12.5-13.6-31.4-3.1-44.8h0c46.7-60.5,136.9-110.9,251.9-136,11-2.4,17.9-13.2,15.5-24.2-2.4-11-13.2-17.9-24.2-15.5C175.9,44.1,75.4,97.9,20.8,168.6-2.5,198.4.4,240.4,27.2,267.1l210.9,210.9c31.6,31.6,85.4,13,91.9-30.3,0-.2,0-.3,0-.5l39.1-310.6Z"/>
</svg>