<svg fill="none" height="1056" viewBox="0 0 1920 1056" width="1920" xmlns="http://www.w3.org/2000/svg"><g fill="#b8effa"><path d="m859.774 131.12 73.997 544.755c.041.301.089.601.143.9 5.399 29.693 48.122 29.693 53.521 0 .054-.299.102-.599.143-.9l74.002-544.755 39.14 310.648c.02.135.04.269.06.402 6.4 43.739 60.27 62.929 92.06 30.249l210.81-210.815c27.04-27.046 28.66-68.836 6.62-98.233-.06-.079-.12-.159-.18-.237-54.72-70.7658-155.21-123.8229-275.4-150.0721-10.97-2.3955-21.8 4.5546-24.19 15.5234-2.4 10.9689 4.55 21.8029 15.52 24.1984 114.98 25.1121 205.08 74.7603 251.8 135.0893 10.32 13.861 9.21 32.849-2.92 44.982l-210.92 210.926c-.08.081-.16.163-.24.246-7.41 7.661-20.91 3.928-22.71-7.583l-52.02-412.8235c-.05-.3664-.11-.7314-.17-1.0947-5.4-29.69316-48.12-29.69316-53.52 0-.06.2989-.11.599-.15.9001l-74.495 548.4531-74.5-548.4531c-.028-.2023-.058-.4042-.092-.6056-2.483-14.89985-15.051-23.152433-27.376-22.8100557-11.455.3182147-23.595 8.2113457-26.196 22.5155557-.066.3633-.122.7283-.168 1.0947l-52.017 412.7735c-1.74 10.616-15.342 15.001-22.956 7.387l-210.918-210.926c-12.473-12.473-13.554-31.373-3.087-44.771l.062-.081c46.732-60.441 136.935-110.7863 251.904-135.8954 10.968-2.3955 17.918-13.2294 15.523-24.1983-2.396-10.9689-13.229-17.91897-24.198-15.5235-120.264 26.2656-220.683 80.0165-275.362 150.7082-23.299 29.867-20.315 71.785 6.41 98.51l210.918 210.927c31.552 31.553 85.439 13.047 91.939-30.289.024-.157.046-.315.065-.474z"/><path clip-rule="evenodd" d="m865.309 961.138c0-52.298 42.394-94.694 94.69-94.694 52.301 0 94.691 42.396 94.691 94.694 0 52.302-42.39 94.692-94.691 94.692-52.296 0-94.69-42.39-94.69-94.692zm94.69-54.036c-29.842 0-54.034 24.193-54.034 54.036s24.192 54.032 54.034 54.032 54.031-24.189 54.031-54.032-24.189-54.036-54.031-54.036z" fill-rule="evenodd"/><path d="m1577.38 922.78c21.13-21.131 55.58-21.131 76.71 0 7.94 7.939 20.81 7.939 28.75 0s7.94-20.811 0-28.75c-37.01-37.009-97.2-37.009-134.21 0-37 37.009-37 97.204 0 134.21 37.01 37.01 97.2 37.01 134.21 0 7.94-7.94 7.94-20.81 0-28.746-7.94-7.939-20.81-7.939-28.75 0-21.13 21.126-55.58 21.126-76.71 0-21.13-21.131-21.13-55.583 0-76.714z"/><path d="m1157.38 873.941c8.8-2.439 18.15 1.297 22.86 9.132l43.36 72.274v-61.815c0-11.227 9.1-20.329 20.33-20.329 11.22 0 20.32 9.102 20.32 20.329v135.208c0 9.14-6.09 17.15-14.9 19.59-8.8 2.44-18.15-1.29-22.85-9.13l-43.37-72.274v61.814c0 11.23-9.1 20.33-20.33 20.33-11.22 0-20.32-9.1-20.32-20.33v-135.208c0-9.137 6.09-17.152 14.9-19.591z"/><path d="m281.13 883.073c-4.701-7.835-14.052-11.571-22.858-9.132-8.805 2.439-14.902 10.454-14.902 19.591v135.208c0 11.23 9.101 20.33 20.328 20.33s20.329-9.1 20.329-20.33v-61.814l43.363 72.274c4.701 7.84 14.051 11.57 22.857 9.13s14.902-10.45 14.902-19.59v-135.208c0-11.227-9.101-20.329-20.328-20.329s-20.328 9.102-20.328 20.329v61.815z"/><path d="m676.07 873.203c9.328 0 17.459 6.349 19.721 15.399l14.08 56.321 14.079-56.321c2.263-9.05 10.394-15.399 19.722-15.399s17.459 6.349 19.721 15.399l33.801 135.208c2.723 10.89-3.899 21.93-14.791 24.65-10.892 2.73-21.929-3.9-24.652-14.79l-14.079-56.319-14.08 56.319c-2.262 9.05-10.393 15.4-19.721 15.4s-17.459-6.35-19.722-15.4l-14.079-56.319-14.08 56.319c-2.723 10.89-13.76 17.52-24.652 14.79-10.891-2.72-17.513-13.76-14.79-24.65l33.8-135.208c2.263-9.05 10.394-15.399 19.722-15.399z"/><path d="m73.8553 888.602c-2.2624-9.05-10.3933-15.399-19.7213-15.399-9.3279 0-17.4589 6.349-19.7212 15.399l-33.801042 135.208c-2.722938 10.89 3.899192 21.93 14.790942 24.65 10.8918 2.73 21.9287-3.9 24.6516-14.79l14.0797-56.319 14.0797 56.319c2.2624 9.05 10.3933 15.4 19.7213 15.4s17.459-6.35 19.721-15.4l14.08-56.319 14.08 56.319c2.723 10.89 13.76 17.52 24.651 14.79 10.892-2.72 17.514-13.76 14.791-24.65l-33.801-135.208c-2.262-9.05-10.393-15.399-19.721-15.399s-17.459 6.349-19.721 15.399l-14.08 56.321z"/><path d="m1832.07 873.204c7.69 0 14.73 4.351 18.18 11.238l67.5 135.008c.35.68.66 1.38.93 2.11.24.63.45 1.26.62 1.9.76 2.79.89 5.65.46 8.41-.43 2.77-1.42 5.35-2.84 7.63-1.38 2.21-3.19 4.18-5.39 5.75-2.5 1.8-5.42 3.05-8.59 3.56-.61.1-1.23.17-1.85.22-.55.04-1.1.05-1.64.04h-53.87c-11.22 0-20.32-9.1-20.32-20.32 0-11.23 9.1-20.33 20.32-20.33h21.2l-34.71-69.43-49.42 98.84c-5.03 10.05-17.24 14.12-27.28 9.1-10.04-5.03-14.11-17.24-9.09-27.28l67.6-135.208c3.45-6.887 10.49-11.238 18.19-11.238z"/><path d="m1420.42 913.862h6.03c11.23 0 20.33-9.102 20.33-20.329s-9.1-20.329-20.33-20.329h-54.08c-11.23 0-20.33 9.102-20.33 20.329s9.1 20.329 20.33 20.329h7.39v94.558h-7.39c-11.23 0-20.33 9.1-20.33 20.33 0 11.22 9.1 20.32 20.33 20.32h54.08c11.23 0 20.33-9.1 20.33-20.32 0-11.23-9.1-20.33-20.33-20.33h-6.03z"/><path d="m473.263 940.81c-11.227 0-20.328 9.101-20.328 20.329 0 11.227 9.101 20.329 20.328 20.329h54.082c11.227 0 20.328-9.102 20.328-20.329 0-11.228-9.101-20.329-20.328-20.329z"/><path d="m452.935 893.533c0-11.227 9.101-20.329 20.328-20.329h54.082c11.227 0 20.328 9.102 20.328 20.329s-9.101 20.329-20.328 20.329h-54.082c-11.227 0-20.328-9.102-20.328-20.329z"/><path d="m473.263 1008.42c-11.227 0-20.328 9.1-20.328 20.33 0 11.22 9.101 20.32 20.328 20.32h54.082c11.227 0 20.328-9.1 20.328-20.32 0-11.23-9.101-20.33-20.328-20.33z"/></g></svg>