<svg width="1920" height="328" viewBox="0 0 1920 328" fill="none" xmlns="http://www.w3.org/2000/svg">
<path d="M206.553 317.124L171.578 61.2089L153.029 207.512C149.949 227.92 124.538 236.468 109.724 221.743L10.0453 122.665C-2.18871 110.071 -3.45514 90.5025 7.38635 76.278L7.47261 76.1648C33.2711 43.3417 80.645 18.1303 137.407 5.80876C142.562 4.68963 147.649 7.96225 148.768 13.1184C149.887 18.2745 146.614 23.3616 141.459 24.4807C87.2123 36.2563 44.621 59.8641 22.5406 87.9128C17.4855 94.5957 18.1241 103.509 23.6974 109.297L123.191 208.191C126.863 211.841 133.311 209.653 134.122 204.747L158.676 11.0884C158.698 10.9152 158.724 10.7427 158.756 10.5709C159.991 3.81953 165.734 0.152341 171.079 0.0047456C176.829 -0.153996 182.775 3.67492 183.955 10.7101L183.998 10.9964L219.208 268.634L254.418 10.9964C254.438 10.8541 254.46 10.7122 254.486 10.5709C257.035 -3.36358 277.112 -3.36358 279.661 10.5709C279.692 10.7427 279.719 10.9152 279.741 11.0884L304.297 204.77C305.138 210.093 311.537 211.982 315.111 208.306L315.224 208.19L414.785 109.231C420.504 103.546 421.021 94.6756 416.166 88.1918C394.111 59.8849 351.57 36.5835 297.277 24.7979C292.121 23.6787 288.849 18.5917 289.968 13.4355C291.087 8.27943 296.173 5.00681 301.329 6.12594C358.044 18.4374 405.467 43.3223 431.292 76.5205L431.378 76.6313C441.799 90.4426 441.026 110.087 428.252 122.783L328.745 221.692C313.82 236.941 288.418 228.077 285.385 207.478L285.357 207.288L266.838 61.2088L231.864 317.124C231.844 317.266 231.821 317.408 231.796 317.549C229.247 331.484 209.17 331.484 206.621 317.549C206.595 317.408 206.572 317.266 206.553 317.124Z" fill="#B8EFFA"/>
<path fill-rule="evenodd" clip-rule="evenodd" d="M1160.58 164.217C1160.58 129.107 1189.2 100.744 1224.38 100.744C1259.56 100.744 1288.18 129.107 1288.18 164.217C1288.18 199.328 1259.56 227.691 1224.38 227.691C1189.2 227.691 1160.58 199.328 1160.58 164.217ZM1224.38 119.85C1199.64 119.85 1179.68 139.77 1179.68 164.217C1179.68 188.665 1199.64 208.584 1224.38 208.584C1249.12 208.584 1269.07 188.665 1269.07 164.217C1269.07 139.77 1249.12 119.85 1224.38 119.85Z" fill="#B8EFFA"/>
<path d="M1734.96 133.3C1717.26 115.974 1688.78 116.046 1671.47 133.249C1654.1 150.513 1653.93 178.647 1671.42 195.77C1689.12 213.095 1717.6 213.023 1734.91 195.82C1738.65 192.101 1744.7 192.12 1748.42 195.862C1752.13 199.604 1752.12 205.653 1748.37 209.372C1723.56 234.037 1683.12 233.965 1658.06 209.423C1632.78 184.678 1633.25 144.301 1658 119.697C1682.82 95.0329 1723.26 95.1048 1748.32 119.647C1752.09 123.338 1752.16 129.387 1748.47 133.157C1744.78 136.927 1738.73 136.991 1734.96 133.3Z" fill="#B8EFFA"/>
<path d="M1380.62 110.443C1378.41 106.768 1374.02 105.019 1369.88 106.168C1365.75 107.318 1362.89 111.082 1362.89 115.373V213.381C1362.89 218.657 1367.17 222.934 1372.44 222.934C1377.72 222.934 1381.99 218.657 1381.99 213.381V149.746L1423.29 218.311C1425.51 221.986 1429.9 223.735 1434.03 222.586C1438.17 221.437 1441.03 217.672 1441.03 213.381V115.373C1441.03 110.097 1436.75 105.82 1431.47 105.82C1426.2 105.82 1421.92 110.097 1421.92 115.373V179.008L1380.62 110.443Z" fill="#B8EFFA"/>
<path d="M713.489 106.168C717.623 105.019 722.015 106.768 724.229 110.443L765.528 179.008V115.373C765.528 110.097 769.805 105.82 775.08 105.82C780.356 105.82 784.632 110.097 784.632 115.373V213.381C784.632 217.672 781.772 221.437 777.638 222.586C773.504 223.735 769.112 221.986 766.898 218.311L725.599 149.746V213.381C725.599 218.657 721.323 222.934 716.047 222.934C710.771 222.934 706.495 218.657 706.495 213.381V115.373C706.495 111.082 709.355 107.318 713.489 106.168Z" fill="#B8EFFA"/>
<path d="M1026.22 113.021C1025.14 108.78 1021.32 105.813 1016.95 105.82C1012.57 105.826 1008.76 108.805 1007.7 113.05L983.126 211.058C981.843 216.175 984.951 221.364 990.068 222.648C995.185 223.931 1000.37 220.822 1001.66 215.704L1017.02 154.416L1032.59 215.733C1033.67 219.974 1037.49 222.941 1041.87 222.934C1046.24 222.928 1050.05 219.949 1051.12 215.704L1066.42 154.655L1081.73 215.704C1083.01 220.822 1088.2 223.931 1093.32 222.648C1098.43 221.364 1101.54 216.175 1100.26 211.058L1075.69 113.05C1074.62 108.8 1070.8 105.82 1066.42 105.82C1062.04 105.82 1058.22 108.8 1057.16 113.05L1041.79 174.338L1026.22 113.021Z" fill="#B8EFFA"/>
<path d="M562.865 105.82C567.241 105.813 571.061 108.78 572.138 113.021L587.71 174.338L603.075 113.05C604.14 108.8 607.959 105.82 612.34 105.82C616.721 105.82 620.54 108.8 621.606 113.05L646.176 211.058C647.459 216.175 644.351 221.364 639.234 222.648C634.117 223.931 628.928 220.822 627.645 215.704L612.34 154.655L597.035 215.704C595.971 219.949 592.159 222.928 587.784 222.934C583.409 222.941 579.588 219.974 578.511 215.733L562.94 154.416L547.575 215.704C546.292 220.822 541.103 223.931 535.986 222.648C530.869 221.364 527.761 216.175 529.044 211.058L553.614 113.05C554.679 108.805 558.49 105.826 562.865 105.82Z" fill="#B8EFFA"/>
<path d="M1869.51 111.068C1867.89 107.845 1864.58 105.814 1860.97 105.819C1857.36 105.824 1854.06 107.863 1852.45 111.09L1803.31 209.098C1800.94 213.815 1802.85 219.555 1807.56 221.92C1812.28 224.285 1818.02 222.379 1820.38 217.663L1861.01 136.63L1894.92 203.825H1870.88C1865.6 203.825 1861.32 208.102 1861.32 213.378C1861.32 218.654 1865.6 222.931 1870.88 222.931H1910.16C1911.7 222.979 1913.28 222.653 1914.75 221.909C1916.76 220.895 1918.25 219.269 1919.12 217.372C1919.43 216.704 1919.66 216.002 1919.81 215.281C1920.06 214.053 1920.07 212.769 1919.81 211.505C1919.74 211.143 1919.65 210.782 1919.53 210.424C1919.36 209.894 1919.14 209.384 1918.88 208.899L1869.51 111.068Z" fill="#B8EFFA"/>
<path d="M1536.16 203.825V124.926H1525.29C1520.02 124.926 1515.74 120.649 1515.74 115.372C1515.74 110.096 1520.02 105.819 1525.29 105.819H1564.86C1570.13 105.819 1574.41 110.096 1574.41 115.372C1574.41 120.649 1570.13 124.926 1564.86 124.926H1555.27V203.825H1564.86C1570.13 203.825 1574.41 208.102 1574.41 213.378C1574.41 218.654 1570.13 222.931 1564.86 222.931H1545.93L1545.71 222.934L1545.5 222.931H1525.29C1520.02 222.931 1515.74 218.654 1515.74 213.378C1515.74 208.102 1520.02 203.825 1525.29 203.825H1536.16Z" fill="#B8EFFA"/>
<path d="M859.347 164.217C859.347 158.94 863.624 154.663 868.899 154.663H908.467C913.743 154.663 918.02 158.94 918.02 164.217C918.02 169.493 913.743 173.77 908.467 173.77H868.899C863.624 173.77 859.347 169.493 859.347 164.217Z" fill="#B8EFFA"/>
<path d="M868.899 105.819C863.624 105.819 859.347 110.096 859.347 115.372C859.347 120.649 863.624 124.926 868.899 124.926H908.467C913.743 124.926 918.02 120.649 918.02 115.372C918.02 110.096 913.743 105.819 908.467 105.819H868.899Z" fill="#B8EFFA"/>
<path d="M859.347 213.378C859.347 208.102 863.624 203.825 868.899 203.825H908.467C913.743 203.825 918.02 208.102 918.02 213.378C918.02 218.654 913.743 222.931 908.467 222.931H868.899C863.624 222.931 859.347 218.654 859.347 213.378Z" fill="#B8EFFA"/>
</svg>
