<svg width="904" height="902" viewBox="0 0 904 902" fill="none" xmlns="http://www.w3.org/2000/svg">
<g id="Modules_4">
<g id="Base Archi">
<path id="Vector" d="M138.245 251.64L92.655 222.543C80.5931 214.843 77.479 198.572 85.8455 186.971C150.806 97.0241 245.308 34.8457 354.53 10.7713C472.389 -15.2124 593.299 6.22623 695.026 71.1648C743.731 102.254 785.128 141.333 818.428 187.573C826.836 199.236 823.763 215.549 811.618 223.269L765.965 252.242C754.858 259.277 740.243 256.455 732.478 245.87C707.15 211.336 675.843 182.052 639.159 158.621C483.994 59.5635 279.21 99.307 171.629 245.517C163.885 256.04 149.249 258.696 138.245 251.661V251.64Z" fill="#0A1C29"/>
<path id="Vector_2" d="M470.021 877.616L467.738 823.593C467.177 810.456 476.935 799.228 490.014 797.796C532.594 793.148 573.617 780.675 612.253 760.626C775.66 675.826 843.61 478.665 770.74 312.428C765.488 300.453 770.512 286.465 782.117 280.446L830.116 255.521C842.987 248.838 858.392 254.193 864.329 267.413C909.774 368.608 916.376 481.509 882.64 588.121C846.226 703.138 767.19 797.112 660.065 852.711C608.786 879.317 554.227 895.63 497.509 901.337C483.205 902.769 470.603 891.977 470.001 877.616H470.021Z" fill="#0A1C29"/>
<path id="Vector_3" d="M209.164 833.057C176.092 811.93 145.574 786.34 118.377 756.621C36.954 667.587 -4.9411 552.175 0.456675 431.637C3.031 373.942 16.1933 318.55 39.6113 266.603C45.5281 253.508 61.1817 247.987 73.9287 254.649L121.865 279.678C133.512 285.759 138.391 299.83 133.076 311.867C115.824 351.05 106.108 392.807 104.156 436.286C95.9143 620.165 232.748 777.562 413.2 797.589C426.196 799.021 435.787 810.373 435.206 823.427L432.798 877.45C432.154 891.832 419.511 902.562 405.186 901.088C334.641 893.845 267.875 870.497 209.185 833.036L209.164 833.057Z" fill="#0A1C29"/>
</g>
<g id="Preserve">
<path id="Vector_4" d="M823.804 527.229L856.295 535.033L853.243 547.692C852.558 550.536 851.52 552.86 850.15 554.666C848.759 556.471 847.098 557.696 845.126 558.36C843.153 559.024 841.015 559.086 838.648 558.526C836.302 557.966 834.413 556.928 832.981 555.454C831.548 553.96 830.635 552.113 830.199 549.872C829.763 547.651 829.887 545.098 830.572 542.255L833.001 532.127L834.683 534.742L822.663 531.857L823.784 527.208L823.804 527.229ZM834.247 534.659L837.071 533.123L834.662 543.106C833.956 546.074 834.039 548.481 834.953 550.307C835.846 552.134 837.465 553.338 839.79 553.898C842.115 554.458 844.088 554.126 845.728 552.902C847.368 551.677 848.551 549.581 849.257 546.613L851.665 536.631L853.492 539.287L834.268 534.659H834.247Z" fill="#B8EFFA"/>
<path id="Vector_5" d="M808.525 580.67L822.725 576.478L821.106 581.314L806.864 585.589L808.525 580.65V580.67ZM815.646 559.501L847.326 570.148L843.174 582.497C841.783 586.606 839.728 589.491 836.988 591.192C834.247 592.894 831.154 593.164 827.666 591.981C825.382 591.213 823.576 590.03 822.289 588.411C821.002 586.793 820.254 584.863 820.026 582.621C819.818 580.359 820.171 577.848 821.106 575.067L824.427 565.209L825.818 567.948L814.089 564.005L815.604 559.481L815.646 559.501ZM825.403 567.803L828.31 566.516L825.029 576.25C824.054 579.155 823.95 581.542 824.697 583.472C825.445 585.381 826.96 586.73 829.223 587.478C831.486 588.246 833.479 588.079 835.223 587C836.967 585.921 838.316 583.929 839.292 581.044L842.572 571.31L844.15 574.112L825.403 567.803Z" fill="#B8EFFA"/>
<path id="Vector_6" d="M804.373 591.566L835.015 604.89L825.611 626.515L821.811 624.855L829.306 607.609L806.282 597.585L798.518 615.433L794.719 613.772L804.393 591.545L804.373 591.566ZM816.351 601.507L820.068 603.126L813.217 618.878L809.5 617.259L816.351 601.507Z" fill="#B8EFFA"/>
<path id="Vector_7" d="M786.643 628.466C787.868 626.225 789.383 624.274 791.169 622.614C792.954 620.953 794.74 619.833 796.463 619.251L798.892 622.593C797.314 623.174 795.715 624.149 794.117 625.54C792.518 626.91 791.21 628.549 790.193 630.417C789.259 632.119 788.698 633.613 788.511 634.879C788.325 636.145 788.428 637.224 788.844 638.117C789.259 638.988 789.902 639.673 790.754 640.151C791.771 640.69 792.747 640.815 793.722 640.503C794.698 640.192 795.653 639.611 796.608 638.76C797.563 637.93 798.518 636.954 799.473 635.834C800.449 634.734 801.466 633.655 802.525 632.575C803.604 631.517 804.705 630.625 805.867 629.898C807.03 629.172 808.276 628.757 809.625 628.653C810.975 628.549 812.428 628.923 813.985 629.794C815.5 630.625 816.663 631.787 817.493 633.26C818.324 634.755 818.677 636.539 818.531 638.615C818.386 640.69 817.618 643.015 816.206 645.588C815.272 647.29 814.13 648.867 812.76 650.299C811.39 651.731 809.957 652.831 808.442 653.599L805.847 650.382C807.362 649.594 808.712 648.597 809.853 647.394C810.995 646.211 811.929 644.945 812.635 643.637C813.528 641.998 814.068 640.524 814.234 639.237C814.4 637.951 814.255 636.871 813.84 636C813.404 635.128 812.76 634.464 811.888 633.987C810.85 633.426 809.853 633.302 808.878 633.613C807.902 633.924 806.947 634.526 806.013 635.356C805.078 636.207 804.124 637.183 803.127 638.262C802.151 639.362 801.134 640.441 800.075 641.52C799.016 642.599 797.916 643.492 796.753 644.218C795.591 644.945 794.345 645.36 793.017 645.464C791.688 645.567 790.255 645.214 788.719 644.364C787.245 643.554 786.082 642.392 785.252 640.898C784.422 639.383 784.089 637.577 784.235 635.481C784.38 633.385 785.169 631.04 786.581 628.466H786.643Z" fill="#B8EFFA"/>
<path id="Vector_8" d="M777.612 645.547L805.805 663.499L793.141 683.381L789.632 681.139L799.743 665.284L778.546 651.794L768.083 668.231L764.574 665.989L777.612 645.547ZM787.888 657.252L791.314 659.431L782.075 673.917L778.65 671.738L787.888 657.252Z" fill="#B8EFFA"/>
<path id="Vector_9" d="M746.907 689.524L761.709 690.146L758.595 694.193L743.751 693.654L746.907 689.524ZM760.505 671.779L787.058 692.076L779.128 702.433C776.491 705.878 773.605 707.953 770.47 708.68C767.336 709.406 764.305 708.659 761.398 706.438C759.467 704.965 758.159 703.263 757.454 701.333C756.748 699.403 756.665 697.327 757.184 695.127C757.703 692.927 758.865 690.665 760.63 688.341L766.962 680.081L767.398 683.111L757.578 675.598L760.485 671.8L760.505 671.779ZM767.045 682.779L770.201 682.488L763.972 690.644C762.125 693.073 761.232 695.314 761.315 697.369C761.398 699.423 762.395 701.167 764.305 702.619C766.194 704.072 768.145 704.57 770.138 704.114C772.131 703.657 774.062 702.204 775.91 699.797L782.159 691.641L782.74 694.795L767.045 682.779Z" fill="#B8EFFA"/>
<path id="Vector_10" d="M732.997 705.587L767.564 717.334L764.076 721.132L732.208 710.236L734.201 708.057L747.737 738.918L744.499 742.425L729.779 709.032L732.976 705.546L732.997 705.587Z" fill="#B8EFFA"/>
<path id="Vector_11" d="M717.198 722.211L739.848 746.783L722.513 762.764L719.69 759.713L733.516 746.97L716.493 728.499L702.168 741.699L699.344 738.648L717.178 722.211H717.198ZM724.132 736.137L726.894 739.125L714.25 750.768L711.51 747.78L724.153 736.137H724.132Z" fill="#B8EFFA"/>
</g>
<g id="Deliver">
<path id="Vector_12" d="M183.171 718.621L158.57 741.243L149.041 730.886C146.632 728.271 145.013 725.47 144.203 722.523C143.394 719.576 143.394 716.691 144.224 713.868C145.055 711.046 146.674 708.535 149.124 706.293C151.573 704.052 154.21 702.64 157.096 702.039C159.961 701.437 162.846 701.686 165.711 702.724C168.576 703.782 171.234 705.629 173.642 708.244L183.171 718.6V718.621ZM176.881 717.915L170.777 711.274C168.909 709.24 166.895 707.829 164.756 707.061C162.618 706.293 160.48 706.127 158.321 706.584C156.182 707.04 154.189 708.12 152.362 709.801C150.515 711.502 149.269 713.391 148.646 715.487C148.023 717.583 148.003 719.721 148.605 721.921C149.207 724.121 150.432 726.238 152.321 728.271L158.424 734.913L176.901 717.915H176.881Z" fill="#B8EFFA"/>
<path id="Vector_13" d="M157.449 689.773L130.875 710.029L116.571 691.288L119.872 688.777L131.29 703.72L151.262 688.486L139.449 673.004L142.75 670.493L157.469 689.773H157.449ZM142.916 695.397L139.698 697.867L129.276 684.211L132.494 681.741L142.916 695.397Z" fill="#B8EFFA"/>
<path id="Vector_14" d="M138.785 664.537L110.799 682.821L108.184 678.815L132.681 662.814L122.778 647.664L126.245 645.381L138.764 664.516L138.785 664.537Z" fill="#B8EFFA"/>
<path id="Vector_15" d="M123.983 640.939L94.98 657.542L92.6133 653.392L121.616 636.789L123.983 640.939Z" fill="#B8EFFA"/>
<path id="Vector_16" d="M112.917 620.518L89.4785 648.515L87.1948 643.886L108.848 618.11L110.156 620.767L76.4823 622.24L74.3647 617.965L110.821 616.284L112.917 620.518Z" fill="#B8EFFA"/>
<path id="Vector_17" d="M103.098 599.785L71.998 612.05L63.3408 590.113L67.2023 588.598L74.1156 606.094L97.4714 596.879L90.3089 578.761L94.1704 577.246L103.077 599.805L103.098 599.785ZM87.6101 601.217L83.8316 602.711L77.5204 586.731L81.2988 585.236L87.6101 601.217Z" fill="#B8EFFA"/>
<path id="Vector_18" d="M91.9696 570.626L59.9359 580.172L56.2197 567.679C54.9948 563.528 54.9948 559.979 56.2612 557.011C57.5276 554.043 59.8943 552.03 63.4029 550.993C65.7281 550.308 67.8664 550.245 69.8595 550.827C71.8317 551.408 73.5756 552.549 75.0496 554.272C76.5236 555.994 77.6862 558.256 78.5167 561.058L81.4854 571.041L78.7658 569.609L90.6201 566.081L91.9903 570.667L91.9696 570.626ZM79.2018 569.443L77.5824 572.161L74.6552 562.324C73.7832 559.398 72.4961 557.364 70.7729 556.223C69.0498 555.102 67.0568 554.873 64.7731 555.538C62.4894 556.222 60.9324 557.509 60.1435 559.377C59.3338 561.266 59.3753 563.652 60.2473 566.599L63.1745 576.437L60.268 575.046L79.2225 569.401L79.2018 569.443ZM85.5753 549.208L76.3783 560.809L74.9251 555.911L84.1013 544.206L85.596 549.187L85.5753 549.208Z" fill="#B8EFFA"/>
</g>
<g id="Screen">
<path id="Vector_19" d="M369.187 81.1266C366.696 81.6869 364.246 81.8322 361.796 81.5832C359.367 81.3341 357.353 80.7322 355.776 79.8191L356.689 75.7929C358.163 76.6022 359.948 77.1418 362.045 77.4324C364.121 77.723 366.218 77.6192 368.294 77.1626C370.183 76.7475 371.678 76.1872 372.758 75.4815C373.837 74.7759 374.585 73.9873 374.958 73.1156C375.353 72.2232 375.436 71.31 375.228 70.3346C374.979 69.2139 374.419 68.4045 373.526 67.8857C372.633 67.3668 371.574 67.014 370.308 66.8687C369.042 66.7027 367.692 66.6197 366.218 66.6404C364.744 66.6404 363.27 66.5989 361.755 66.4744C360.239 66.3706 358.848 66.1216 357.52 65.7273C356.212 65.3329 355.07 64.6688 354.115 63.7141C353.16 62.7802 352.475 61.4312 352.101 59.6879C351.727 58.0069 351.831 56.3673 352.392 54.7485C352.973 53.1297 354.073 51.6977 355.734 50.4317C357.395 49.1657 359.658 48.2111 362.502 47.5677C364.391 47.1526 366.343 46.9658 368.315 47.0489C370.287 47.1319 372.073 47.4847 373.63 48.1073L372.924 52.175C371.325 51.5524 369.685 51.1996 368.045 51.1373C366.405 51.0751 364.848 51.1996 363.374 51.5109C361.547 51.926 360.094 52.4863 359.014 53.2127C357.935 53.9391 357.208 54.7485 356.834 55.6617C356.461 56.5541 356.378 57.488 356.606 58.4427C356.855 59.5841 357.436 60.435 358.308 60.9539C359.18 61.4727 360.26 61.8048 361.506 61.9501C362.751 62.0954 364.121 62.1784 365.595 62.1991C367.069 62.1991 368.543 62.2614 370.059 62.3444C371.554 62.4274 372.965 62.6765 374.273 63.0708C375.581 63.4651 376.723 64.1292 377.678 65.0424C378.633 65.9763 379.297 67.2838 379.692 69.0064C380.066 70.6459 379.941 72.2855 379.36 73.9043C378.778 75.5231 377.637 76.9551 375.955 78.2418C374.273 79.5078 371.99 80.4625 369.125 81.1058L369.187 81.1266Z" fill="#B8EFFA"/>
<path id="Vector_20" d="M402.757 75.2117C400.224 75.5645 397.858 75.4607 395.615 74.9211C393.373 74.3815 391.36 73.4476 389.595 72.1401C387.83 70.8326 386.356 69.2138 385.194 67.2837C384.031 65.3536 383.284 63.1537 382.931 60.7048C382.599 58.2558 382.723 55.9314 383.325 53.7522C383.927 51.5731 384.903 49.6222 386.273 47.8789C387.643 46.1356 389.325 44.7036 391.339 43.5621C393.353 42.4414 395.615 41.6943 398.148 41.3415C400.702 40.9887 403.11 41.0924 405.394 41.6735C407.677 42.2339 409.691 43.2716 411.435 44.7658L408.778 48.1695C407.324 47.028 405.788 46.2394 404.107 45.8035C402.446 45.3677 400.702 45.2847 398.916 45.5337C397.048 45.7828 395.366 46.3431 393.872 47.194C392.356 48.0449 391.11 49.1241 390.093 50.4109C389.076 51.6976 388.37 53.1711 387.934 54.8314C387.498 56.4917 387.415 58.2143 387.664 60.0406C387.913 61.867 388.474 63.5273 389.325 64.98C390.176 66.4536 391.276 67.678 392.605 68.6535C393.934 69.6289 395.429 70.3138 397.11 70.7288C398.792 71.1439 400.556 71.2062 402.425 70.9571C404.231 70.7081 405.871 70.1477 407.345 69.2968C408.84 68.4252 410.106 67.2422 411.186 65.7064L414.674 68.2591C413.387 70.1685 411.726 71.725 409.691 72.8872C407.657 74.0702 405.331 74.8381 402.757 75.1909V75.2117Z" fill="#B8EFFA"/>
<path id="Vector_21" d="M421.026 72.7836L419.179 39.4116L432.196 38.6852C436.514 38.4361 439.981 39.287 442.576 41.1964C445.171 43.1057 446.562 45.8867 446.77 49.5394C446.894 51.9468 446.458 54.0637 445.441 55.8486C444.424 57.6334 442.908 59.0654 440.894 60.0823C438.881 61.12 436.41 61.7219 433.483 61.8879L423.082 62.469L425.095 60.1653L425.781 72.5138L421.006 72.7836H421.026ZM425.137 60.6427L422.853 58.422L433.109 57.8617C436.161 57.6956 438.445 56.907 439.939 55.4957C441.434 54.0845 442.119 52.1959 441.995 49.8092C441.87 47.4225 440.977 45.6169 439.337 44.4132C437.697 43.1887 435.351 42.6699 432.299 42.8359L422.044 43.3963L424.057 40.8851L425.158 60.6219L425.137 60.6427ZM443.344 71.5384L434.189 59.8955L439.296 59.605L448.555 71.2271L443.365 71.5177L443.344 71.5384Z" fill="#B8EFFA"/>
<path id="Vector_22" d="M454.949 71.4969L456.133 38.104L479.717 38.9342L479.571 43.0849L460.762 42.4208L459.869 67.5121L479.343 68.197L479.198 72.3478L454.949 71.4969ZM459.828 56.6994L459.973 52.6524L477.163 53.2543L477.018 57.3013L459.849 56.6994H459.828Z" fill="#B8EFFA"/>
<path id="Vector_23" d="M486.215 72.9705L490.139 39.7852L513.557 42.5662L513.058 46.6962L494.374 44.4963L491.426 69.4216L510.775 71.7045L510.297 75.8345L486.215 72.9912V72.9705ZM492.298 58.6504L492.775 54.6241L509.841 56.6372L509.363 60.6635L492.298 58.6504Z" fill="#B8EFFA"/>
<path id="Vector_24" d="M517.231 76.9135L524.186 44.2263L528.027 45.0357L543.93 76.4777L541.916 76.0419L547.625 49.1865L552.296 50.1827L545.341 82.8699L541.521 82.0605L525.619 50.6185L527.633 51.0543L521.923 77.9097L517.252 76.9135H517.231Z" fill="#B8EFFA"/>
</g>
</g>
</svg>
