<?xml version="1.0" encoding="UTF-8"?>
<svg id="Layer_1" xmlns="http://www.w3.org/2000/svg" xmlns:xlink="http://www.w3.org/1999/xlink" version="1.1" viewBox="0 0 255.1 255.1">
  <!-- Generator: Adobe Illustrator 29.0.1, SVG Export Plug-In . SVG Version: 2.1.0 Build 192)  -->
  <defs>
    <style>
      .st0 {
        fill: none;
      }

      .st1 {
        isolation: isolate;
      }

      .st2 {
        clip-path: url(#clippath-1);
      }

      .st3 {
        clip-path: url(#clippath-3);
      }

      .st4 {
        clip-path: url(#clippath-4);
      }

      .st5 {
        clip-path: url(#clippath-2);
      }

      .st6 {
        clip-path: url(#clippath-5);
      }

      .st7 {
        fill: #fff;
      }

      .st8 {
        mix-blend-mode: darken;
      }

      .st9 {
        fill: #6dcff6;
      }

      .st10 {
        clip-path: url(#clippath);
      }

      .st11 {
        mix-blend-mode: screen;
        opacity: .3;
      }
    </style>
    <clipPath id="clippath">
      <path class="st0" d="M128,223.6c-52.8,0-95.7-42.9-95.7-95.7s42.9-95.7,95.7-95.7,95.7,42.9,95.7,95.7-42.9,95.7-95.7,95.7ZM128,44.9c-45.8,0-83,37.2-83,83s37.2,83,83,83,83-37.2,83-83-37.2-83-83-83Z"/>
    </clipPath>
    <clipPath id="clippath-1">
      <rect class="st0" x="14.2" y="14.1" width="227" height="227"/>
    </clipPath>
    <clipPath id="clippath-2">
      <rect class="st0" x="9.2" y="9.1" width="237" height="237"/>
    </clipPath>
    <clipPath id="clippath-3">
      <path class="st0" d="M128,223.6c-52.8,0-95.7-42.9-95.7-95.7s42.9-95.7,95.7-95.7,95.7,42.9,95.7,95.7-42.9,95.7-95.7,95.7ZM128,44.9c-45.8,0-83,37.2-83,83s37.2,83,83,83,83-37.2,83-83-37.2-83-83-83Z"/>
    </clipPath>
    <clipPath id="clippath-4">
      <path class="st0" d="M128,223.6c-52.8,0-95.7-42.9-95.7-95.7s42.9-95.7,95.7-95.7,95.7,42.9,95.7,95.7-42.9,95.7-95.7,95.7ZM128,44.9c-45.8,0-83,37.2-83,83s37.2,83,83,83,83-37.2,83-83-37.2-83-83-83Z"/>
    </clipPath>
    <clipPath id="clippath-5">
      <path class="st0" d="M128,223.6c-52.8,0-95.7-42.9-95.7-95.7s42.9-95.7,95.7-95.7,95.7,42.9,95.7,95.7-42.9,95.7-95.7,95.7ZM128,44.9c-45.8,0-83,37.2-83,83s37.2,83,83,83,83-37.2,83-83-37.2-83-83-83Z"/>
    </clipPath>
  </defs>
  <g class="st1">
    <g id="Layer_2">
      <g id="M_circle_export">
        <g id="m_circle_ecosys_3">
          <g class="st11">
            <g class="st10">
              <g>
                <rect class="st7" x=".4" y=".3" width="255.1" height="255.1"/>
                <g class="st2">
                  <g class="st5">
                    <image class="st1" width="494" height="494" transform="translate(9.2 9.1) scale(.5)" xlink:href="m_circle_ecosys_4-1.png"/>
                  </g>
                </g>
              </g>
            </g>
          </g>
          <g class="st8">
            <g>
              <g class="st3">
                <g>
                  <rect class="st9" x=".4" y=".3" width="255.1" height="255.1"/>
                  <rect class="st9" x="14.2" y="14.1" width="227" height="227"/>
                </g>
              </g>
              <g class="st4">
                <g>
                  <rect class="st9" x=".4" y=".3" width="255.1" height="255.1"/>
                  <rect class="st9" x="14.2" y="14.1" width="227" height="227"/>
                </g>
              </g>
              <g class="st6">
                <g>
                  <rect class="st9" x=".4" y=".3" width="255.1" height="255.1"/>
                  <rect class="st9" x="14.2" y="14.1" width="227" height="227"/>
                </g>
              </g>
            </g>
          </g>
        </g>
      </g>
    </g>
  </g>
</svg>